# xmcd
#
# Track frame offsets: 
#        150
#        19392
#        34045
#        52912
#        67741
#        82953
#        102244
#        116775
#        132463
#        145285
#        163990
#        179976
#
# Disc length: 2666 seconds
#
# Revision: 2
# Processed by: cddbd v1.5.1PL2 Copyright (c) Steve Scherf et al.
# Submitted via: ExactAudioCopy v0.95b3
#
DISCID=ac0a680c
DTITLE=The Freemans - The Very Best Of...And More
DYEAR=2004
DGENRE=Gospel
TTITLE0=In Spite Of The Storm
TTITLE1=Hello In Heaven
TTITLE2=Once Was Enough
TTITLE3=Something Out Of Nothing
TTITLE4=Rise Up
TTITLE5=He'd Have To Walk Through The Blood
TTITLE6=He'd Still Been God
TTITLE7=One Out Of Ten
TTITLE8=He'll Keep You Through
TTITLE9=Children Of The Dust
TTITLE10=Already Sold Out
TTITLE11=Going Back [2004]
EXTD=
EXTT0=
EXTT1=
EXTT2=
EXTT3=
EXTT4=
EXTT5=
EXTT6=
EXTT7=
EXTT8=
EXTT9=
EXTT10=
EXTT11=
PLAYORDER=
